<?xml version="1.0" encoding="UTF-8"?>
<svg id="Layer_1" data-name="Layer 1" xmlns="http://www.w3.org/2000/svg" version="1.1" viewBox="0 0 576 792">
  <defs>
    <style>
      .cls-1 {
        stroke-width: 0px;
      }

      .cls-1, .cls-2 {
        fill: #010101;
      }

      .cls-2 {
        font-family: ArialRoundedMTBold, 'Arial Rounded MT Bold';
        font-size: 69.24px;
      }

      .cls-3 {
        fill: none;
        stroke: #231f20;
        stroke-linecap: round;
        stroke-miterlimit: 10;
        stroke-width: 7px;
      }
    </style>
  </defs>
  <g>
    <path class="cls-1" d="M48.96,355.53h-3.21c-3.13,0-6.02-1.41-7.95-3.88-1.92-2.47-2.59-5.62-1.83-8.65l.87-3.48c.41-1.64,2.06-2.64,3.7-2.22,1.63.41,2.63,2.07,2.22,3.7l-.87,3.48c-.3,1.19-.03,2.44.72,3.41.76.97,1.9,1.53,3.14,1.53h3.21c1.69,0,3.05,1.37,3.05,3.05s-1.37,3.05-3.05,3.05Z"/>
    <path class="cls-1" d="M39.81,334.16h0c-1.68,0-3.05-1.37-3.05-3.05,0-.55.09-13.61,8.07-21.8,2.18-2.26,5.3-3.38,8.51-3.1,3.42.32,6.6,2.21,8.49,5.07l.76,1.15,3.35-.69c3.2-.63,6.33.47,8.46,2.89,2.11,2.4,2.77,5.63,1.77,8.64l-2.75,8.24c-.53,1.6-2.25,2.47-3.86,1.93-1.6-.53-2.46-2.26-1.93-3.86l2.75-8.24c.44-1.34-.25-2.32-.56-2.69-.33-.37-1.25-1.2-2.68-.92l-5.34,1.09c-1.21.25-2.47-.27-3.16-1.31l-1.89-2.87c-.88-1.32-2.36-2.21-3.95-2.35-.8-.07-2.34,0-3.58,1.26-6.23,6.4-6.35,17.44-6.35,17.55,0,1.68-1.37,3.04-3.05,3.04Z"/>
    <path class="cls-1" d="M100.94,471.56c-1.68,0-3.04-1.35-3.05-3.04l-.08-12.21c-.01-1.69,1.35-3.06,3.04-3.07h.02c1.68,0,3.04,1.35,3.05,3.04l.08,12.21c.01,1.69-1.35,3.06-3.04,3.07h-.02Z"/>
    <path class="cls-1" d="M82.62,477.66c-1.28,0-2.47-.81-2.9-2.09-.53-1.6.33-3.33,1.93-3.86l18.32-6.11c1.1-.35,2.31-.08,3.12.74l6.11,6.11c1.19,1.19,1.19,3.12,0,4.32-1.19,1.19-3.12,1.19-4.32,0l-4.77-4.77-16.53,5.51c-.32.11-.65.16-.97.16Z"/>
    <path class="cls-1" d="M168.11,379.96c-.32,0-.65-.05-.98-.16-1.6-.54-2.46-2.27-1.92-3.87,1.38-4.1,4.24-8.57,6.92-12.19l-3.49.86c-1.29.31-2.61-.22-3.31-1.33s-.62-2.54.21-3.56l7.82-9.63c-10.25,2.19-14.66,9.06-14.87,9.41-.89,1.42-2.77,1.86-4.2,1-1.43-.88-1.89-2.74-1.01-4.18.33-.54,8.23-13.4,27.07-12.99,1.17.01,2.23.7,2.73,1.76.5,1.06.34,2.31-.39,3.22l-6.66,8.2,3.56-.88c1.32-.32,2.68.25,3.36,1.42.68,1.16.52,2.64-.4,3.63-.09.1-9.05,9.79-11.56,17.22-.43,1.28-1.62,2.08-2.89,2.08Z"/>
    <path class="cls-1" d="M100.76,459.34c-10.03,0-15.7-11.5-17.46-15.79-37.71-10.64-41.59-35.73-43.46-47.87-1.3-8.4,1.23-19.7,3.47-29.68,1.51-6.7,2.93-13.03,2.61-16.3-.36-3.83-.98-5.65-1.34-6.43l-16.99.04c-1.31,0-2.48-.84-2.9-2.09-.42-1.25.01-2.62,1.06-3.41l11.81-8.86c4.72-6.67,13.01-9.62,20.79-7.37,3.69,1.07,7.12,2.31,10.17,3.67,5.27,2.36,9.85,10.67,15.14,20.3,5.94,10.79,13.32,24.22,20.68,25.26,3.58.51,7.48.24,11.64-.8,9.63-2.41,18.27-8.81,24.32-18.03,3.05-4.65,5.28-8.93,6.61-12.75,5.01-14.27,26.81-11.3,27.74-11.17,1.26.18,2.28,1.14,2.55,2.39.27,1.25-.27,2.54-1.35,3.22-5.93,3.74-11.29,11.31-11.35,11.39-.97,1.38-2.87,1.71-4.25.74s-1.71-2.88-.74-4.25c.16-.23,2.75-3.88,6.47-7.6-5.22.4-11.45,2.03-13.3,7.32-1.5,4.28-3.94,9.02-7.27,14.08-6.89,10.51-16.82,17.82-27.94,20.6-4.92,1.22-9.62,1.53-13.98.92-10.38-1.48-17.9-15.15-25.17-28.37-4.16-7.57-8.88-16.15-12.28-17.67-2.8-1.25-5.95-2.39-9.38-3.38-5.39-1.58-11.15.58-14.32,5.34-.19.29-.43.54-.71.75l-4.88,3.66h9.16c3.5.51,5.39,4.51,6.09,11.92.4,4.23-1.05,10.71-2.73,18.21-2.12,9.45-4.52,20.15-3.4,27.41,1.83,11.86,5.25,33.94,40.51,43.31.99.26,1.78,1.01,2.11,1.97,1.26,3.69,6.15,13.2,12.34,13.19,7.36-.08,9.11-6.14,9.28-6.83.31-1.23,1.37-2.18,2.64-2.31.2-.02,19.9-2.3,33.76-13.05,7.75-6.02,12.37-15.99,12.37-26.66,0-.77.3-1.51.82-2.08.07-.08,7.33-7.98,11.54-20.28.55-1.6,2.28-2.45,3.88-1.9,1.6.55,2.45,2.28,1.9,3.88-3.84,11.22-9.87,18.99-12.04,21.56-.33,12.1-5.78,23.36-14.72,30.31-12.73,9.88-29.27,13.17-34.9,14.04-1.73,4.03-6.13,9.36-14.46,9.45h-.14Z"/>
    <path class="cls-1" d="M124.76,428.82c-21.3,0-43.18-18.26-44.11-19.05-4.64-4.13-6.98-8.75-7.04-13.79-.09-8.56,6.64-14.93,6.93-15.2,1.23-1.15,3.15-1.08,4.3.15,1.15,1.23,1.09,3.15-.13,4.31-.05.05-5.07,4.86-4.99,10.7.05,3.24,1.71,6.35,4.93,9.22.14.11,18.46,15.37,36.41,17.34l-1.65-4.94c-.33-.98-.13-2.06.51-2.87.64-.81,1.64-1.28,2.69-1.13.98.07,23.97,2.11,30.36-19.21.48-1.62,2.18-2.54,3.8-2.05,1.62.48,2.53,2.18,2.05,3.8-5.93,19.81-23.8,23.13-32.27,23.56l1.71,5.13c.31.92.16,1.94-.4,2.73s-1.47,1.27-2.44,1.29c-.22,0-.44,0-.66,0Z"/>
  </g>
  <text class="cls-2" transform="translate(163.36 473.57)"><tspan x="0" y="0">Flint Chicks</tspan></text>
  <line class="cls-3" x1="32.93" y1="485.83" x2="551.47" y2="485.83"/>
</svg>