<?xml version="1.0" encoding="UTF-8"?>
<svg id="Layer_1" data-name="Layer 1" xmlns="http://www.w3.org/2000/svg" viewBox="0 0 51.6 18.03">
  <defs>
    <style>
      .cls-1 {
        fill: none;
        stroke: #231f20;
        stroke-linecap: round;
        stroke-miterlimit: 10;
      }

      .cls-2 {
        stroke-width: 0px;
      }

      .cls-2, .cls-3 {
        fill: #000;
      }

      .cls-4 {
        letter-spacing: -.01em;
      }

      .cls-5 {
        letter-spacing: -.02em;
      }

      .cls-6 {
        letter-spacing: -.04em;
      }

      .cls-7, .cls-3 {
        isolation: isolate;
      }

      .cls-8 {
        letter-spacing: 0em;
      }

      .cls-3 {
        font-family: ArialRoundedMTBold, 'Arial Rounded MT Bold';
        font-size: 6.76px;
      }
    </style>
  </defs>
  <g>
    <path class="cls-2" d="M2.48,4.82h-.31c-.31,0-.59-.14-.78-.38s-.25-.55-.18-.84l.08-.34c.04-.16.2-.26.36-.22.16.04.26.2.22.36l-.08.34c-.03.12,0,.24.07.33s.19.15.31.15h.31c.16,0,.3.13.3.3s-.13.3-.3.3Z"/>
    <path class="cls-2" d="M1.59,2.73h0c-.16,0-.3-.13-.3-.3,0-.05,0-1.33.79-2.13C2.29.08,2.6-.03,2.91,0c.33.03.64.22.83.49l.07.11.33-.07c.31-.06.62.05.83.28.21.23.27.55.17.84l-.27.8c-.05.16-.22.24-.38.19s-.24-.22-.19-.38l.27-.8c.04-.13-.02-.23-.05-.26-.03-.04-.12-.12-.26-.09l-.52.11c-.12.02-.24-.03-.31-.13l-.18-.28c-.09-.13-.23-.22-.39-.23-.08,0-.23,0-.35.12-.61.62-.62,1.7-.62,1.71,0,.16-.13.3-.3.3v.02Z"/>
    <path class="cls-2" d="M7.56,16.14c-.16,0-.3-.13-.3-.3v-1.19c0-.16.12-.3.29-.3h0c.16,0,.3.13.3.3v1.19c0,.16-.12.3-.29.3h0Z"/>
    <path class="cls-2" d="M5.77,16.73c-.12,0-.24-.08-.28-.2-.05-.16.03-.32.19-.38l1.79-.6c.11-.03.23,0,.3.07l.6.6c.12.12.12.3,0,.42s-.3.12-.42,0l-.47-.47-1.61.54s-.06.02-.09.02h-.01Z"/>
    <path class="cls-2" d="M14.11,7.2s-.06,0-.1-.02c-.16-.05-.24-.22-.19-.38.14-.4.41-.84.68-1.19l-.34.08c-.13.03-.25-.02-.32-.13s-.06-.25.02-.35l.76-.94c-1,.21-1.43.88-1.45.92-.09.14-.27.18-.41.1-.14-.09-.18-.27-.1-.41.03-.05.8-1.31,2.64-1.27.11,0,.22.07.27.17.05.1.03.23-.04.31l-.65.8.35-.09c.13-.03.26.02.33.14.07.11.05.26-.04.35,0,0-.88.96-1.13,1.68-.04.12-.16.2-.28.2v.03Z"/>
    <path class="cls-2" d="M7.54,14.95c-.98,0-1.53-1.12-1.7-1.54-3.68-1.04-4.06-3.49-4.24-4.67-.13-.82.12-1.92.34-2.9.15-.65.29-1.27.26-1.59-.04-.37-.1-.55-.13-.63H.41c-.13,0-.24-.08-.28-.2-.04-.12,0-.26.1-.33l1.15-.86c.46-.65,1.27-.94,2.03-.72.36.1.69.23.99.36.51.23.96,1.04,1.48,1.98.58,1.05,1.3,2.36,2.02,2.47.35.05.73.02,1.14-.08.94-.23,1.78-.86,2.37-1.76.3-.45.52-.87.65-1.24.49-1.39,2.62-1.1,2.71-1.09.12.02.22.11.25.23.03.12-.03.25-.13.31-.58.37-1.1,1.1-1.11,1.11-.09.13-.28.17-.42.07s-.17-.28-.07-.42c.02-.02.27-.38.63-.74-.51.04-1.12.2-1.3.71-.15.42-.38.88-.71,1.37-.67,1.03-1.64,1.74-2.73,2.01-.48.12-.94.15-1.36.09-1.01-.14-1.75-1.48-2.46-2.77-.41-.74-.87-1.58-1.2-1.72-.27-.12-.58-.23-.92-.33-.53-.15-1.09.06-1.4.52-.02.03-.04.05-.07.07l-.48.36h.89c.34.05.53.44.59,1.16.04.41-.1,1.04-.27,1.78-.21.92-.44,1.97-.33,2.68.18,1.16.51,3.31,3.95,4.23.1.03.17.1.21.19.12.36.6,1.29,1.2,1.29.72,0,.89-.6.91-.67.03-.12.13-.21.26-.23.02,0,1.94-.22,3.29-1.27.76-.59,1.21-1.56,1.21-2.6,0-.08.03-.15.08-.2,0,0,.72-.78,1.13-1.98.05-.16.22-.24.38-.19s.24.22.19.38c-.37,1.1-.96,1.85-1.18,2.1-.03,1.18-.56,2.28-1.44,2.96-1.24.96-2.86,1.28-3.41,1.37-.17.39-.6.91-1.41.92h-.01,0Z"/>
    <path class="cls-2" d="M9.88,11.97c-2.08,0-4.21-1.78-4.3-1.86-.45-.4-.68-.85-.69-1.35,0-.84.65-1.46.68-1.48.12-.11.31-.11.42.01s.11.31-.01.42c0,0-.5.47-.49,1.04,0,.32.17.62.48.9.01.01,1.8,1.5,3.55,1.69l-.16-.48c-.03-.1-.01-.2.05-.28s.16-.12.26-.11c.1,0,2.34.21,2.96-1.88.05-.16.21-.25.37-.2.16.05.25.21.2.37-.58,1.93-2.32,2.26-3.15,2.3l.17.5c.03.09.02.19-.04.27s-.14.12-.24.13h-.06Z"/>
  </g>
  <g class="cls-7">
    <text class="cls-3" transform="translate(13.65 16.34)"><tspan class="cls-4" x="0" y="0">F</tspan><tspan class="cls-8" x="3.99" y="0">lint Chi</tspan><tspan class="cls-6" x="26.74" y="0">c</tspan><tspan class="cls-5" x="30.5" y="0">k</tspan><tspan x="34.21" y="0">s</tspan></text>
  </g>
  <line class="cls-1" x1=".5" y1="17.53" x2="51.1" y2="17.53"/>
</svg>